<svg width="20" height="19" viewBox="0 0 20 19" fill="none" xmlns="http://www.w3.org/2000/svg">
<path fill-rule="evenodd" clip-rule="evenodd" d="M10.3024 13.3201C9.90744 13.3201 9.52965 13.1382 9.26737 12.819L5.97881 8.8396C5.5854 8.36267 5.50656 7.68591 5.77664 7.11375C6.01471 6.60871 6.48852 6.29492 7.01385 6.29492H13.591C14.1163 6.29492 14.5901 6.60871 14.8282 7.11375C15.0983 7.68591 15.0194 8.36267 14.6268 8.83882L11.3375 12.819C11.0752 13.1382 10.6974 13.3201 10.3024 13.3201Z" fill="white"/>
<mask id="mask0_2721_16302" style="mask-type:alpha" maskUnits="userSpaceOnUse" x="5" y="6" width="10" height="8">
<path fill-rule="evenodd" clip-rule="evenodd" d="M10.3024 13.3201C9.90744 13.3201 9.52965 13.1382 9.26737 12.819L5.97881 8.8396C5.5854 8.36267 5.50656 7.68591 5.77664 7.11375C6.01471 6.60871 6.48852 6.29492 7.01385 6.29492H13.591C14.1163 6.29492 14.5901 6.60871 14.8282 7.11375C15.0983 7.68591 15.0194 8.36267 14.6268 8.83882L11.3375 12.819C11.0752 13.1382 10.6974 13.3201 10.3024 13.3201Z" fill="white"/>
</mask>
<g mask="url(#mask0_2721_16302)">
</g>
</svg>
