<svg width="11" height="13" viewBox="0 0 11 13" fill="none" xmlns="http://www.w3.org/2000/svg">
<path d="M2.17773 12.957C1.81107 12.957 1.49729 12.8266 1.2364 12.5657C0.975068 12.3044 0.844401 11.9904 0.844401 11.6237V2.95703C0.655512 2.95703 0.497068 2.89325 0.369068 2.7657C0.241512 2.6377 0.177734 2.47925 0.177734 2.29036C0.177734 2.10148 0.241512 1.94303 0.369068 1.81503C0.497068 1.68748 0.655512 1.6237 0.844401 1.6237H3.51107C3.51107 1.43481 3.57507 1.27636 3.70307 1.14836C3.83062 1.02081 3.98885 0.957031 4.17773 0.957031H6.8444C7.03329 0.957031 7.19173 1.02081 7.31973 1.14836C7.44729 1.27636 7.51107 1.43481 7.51107 1.6237H10.1777C10.3666 1.6237 10.5248 1.68748 10.6524 1.81503C10.7804 1.94303 10.8444 2.10148 10.8444 2.29036C10.8444 2.47925 10.7804 2.6377 10.6524 2.7657C10.5248 2.89325 10.3666 2.95703 10.1777 2.95703V11.6237C10.1777 11.9904 10.0473 12.3044 9.7864 12.5657C9.52507 12.8266 9.21107 12.957 8.8444 12.957H2.17773ZM3.51107 9.6237C3.51107 9.81259 3.57507 9.97081 3.70307 10.0984C3.83062 10.2264 3.98885 10.2904 4.17773 10.2904C4.36662 10.2904 4.52507 10.2264 4.65307 10.0984C4.78062 9.97081 4.8444 9.81259 4.8444 9.6237V4.95703C4.8444 4.76814 4.78062 4.6097 4.65307 4.4817C4.52507 4.35414 4.36662 4.29036 4.17773 4.29036C3.98885 4.29036 3.83062 4.35414 3.70307 4.4817C3.57507 4.6097 3.51107 4.76814 3.51107 4.95703V9.6237ZM6.17773 9.6237C6.17773 9.81259 6.24173 9.97081 6.36973 10.0984C6.49729 10.2264 6.65551 10.2904 6.8444 10.2904C7.03329 10.2904 7.19173 10.2264 7.31973 10.0984C7.44729 9.97081 7.51107 9.81259 7.51107 9.6237V4.95703C7.51107 4.76814 7.44729 4.6097 7.31973 4.4817C7.19173 4.35414 7.03329 4.29036 6.8444 4.29036C6.65551 4.29036 6.49729 4.35414 6.36973 4.4817C6.24173 4.6097 6.17773 4.76814 6.17773 4.95703V9.6237Z" fill="#2165A2"/>
</svg>
