<svg width="65" height="52" viewBox="0 0 65 52" fill="none" xmlns="http://www.w3.org/2000/svg">
<path d="M62.5868 0.904788H46.2593C42.7554 0.904788 39.33 1.91099 36.3828 3.80922L32.9003 6.04285L29.4178 3.80922C26.4735 1.91135 23.0443 0.902915 19.5414 0.904788H3.21376C1.95065 0.904788 0.930176 1.92526 0.930176 3.18837V43.7219C0.930176 44.985 1.95065 46.0055 3.21376 46.0055H19.5414C23.0452 46.0055 26.4706 47.0117 29.4178 48.9099L32.5863 50.9509C32.6791 51.008 32.7861 51.0437 32.8932 51.0437C33.0002 51.0437 33.1073 51.0151 33.2 50.9509L36.3685 48.9099C39.3229 47.0117 42.7554 46.0055 46.2593 46.0055H62.5868C63.85 46.0055 64.8704 44.985 64.8704 43.7219V3.18837C64.8704 1.92526 63.85 0.904788 62.5868 0.904788ZM25.1932 28.9143C25.1932 29.2069 24.9649 29.4496 24.6865 29.4496H11.4275C11.1492 29.4496 10.9208 29.2069 10.9208 28.9143V25.7031C10.9208 25.4105 11.1492 25.1678 11.4275 25.1678H24.6794C24.9577 25.1678 25.1861 25.4105 25.1861 25.7031V28.9143H25.1932ZM25.1932 18.9237C25.1932 19.2163 24.9649 19.4589 24.6865 19.4589H11.4275C11.1492 19.4589 10.9208 19.2163 10.9208 18.9237V15.7124C10.9208 15.4198 11.1492 15.1772 11.4275 15.1772H24.6794C24.9577 15.1772 25.1861 15.4198 25.1861 15.7124V18.9237H25.1932ZM54.8798 28.9143C54.8798 29.2069 54.6514 29.4496 54.3731 29.4496H41.1141C40.8357 29.4496 40.6074 29.2069 40.6074 28.9143V25.7031C40.6074 25.4105 40.8357 25.1678 41.1141 25.1678H54.366C54.6443 25.1678 54.8726 25.4105 54.8726 25.7031V28.9143H54.8798ZM54.8798 18.9237C54.8798 19.2163 54.6514 19.4589 54.3731 19.4589H41.1141C40.8357 19.4589 40.6074 19.2163 40.6074 18.9237V15.7124C40.6074 15.4198 40.8357 15.1772 41.1141 15.1772H54.366C54.6443 15.1772 54.8726 15.4198 54.8726 15.7124V18.9237H54.8798Z" fill="#2165A2"/>
</svg>
