<svg width="30" height="30" viewBox="0 0 30 30" fill="none" xmlns="http://www.w3.org/2000/svg">
<path d="M29 15C29 22.732 22.732 29 15 29C7.26801 29 1 22.732 1 15C1 7.26801 7.26801 1 15 1C22.732 1 29 7.26801 29 15Z" stroke="white" stroke-width="2"/>
<g clip-path="url(#clip0_2721_16861)">
<path d="M18.3088 12.5191V19.1367C18.3088 19.4292 18.1926 19.7098 17.9858 19.9166C17.779 20.1235 17.4984 20.2397 17.2059 20.2397H9.48532C9.12322 20.2397 8.76466 20.1683 8.43013 20.0298C8.09559 19.8912 7.79162 19.6881 7.53558 19.432C7.01847 18.9149 6.72797 18.2136 6.72797 17.4823V10.8647C6.72797 10.5721 6.84417 10.2916 7.05101 10.0848C7.25785 9.87792 7.53839 9.76172 7.83091 9.76172H15.5515C16.2828 9.76172 16.9841 10.0522 17.5012 10.5693C18.0183 11.0864 18.3088 11.7878 18.3088 12.5191ZM22.9963 11.2162C22.9132 11.1657 22.8179 11.139 22.7206 11.139C22.6234 11.139 22.528 11.1657 22.4449 11.2162L19.6875 12.7879C19.603 12.8367 19.5329 12.9071 19.4844 12.9919C19.436 13.0767 19.4109 13.1728 19.4118 13.2705V16.7309C19.4109 16.8286 19.436 16.9247 19.4844 17.0095C19.5329 17.0942 19.603 17.1646 19.6875 17.2135L22.4449 18.7852C22.5289 18.8334 22.6238 18.8595 22.7206 18.861C22.8176 18.8604 22.9127 18.8342 22.9963 18.7852C23.0809 18.738 23.1511 18.669 23.1996 18.5852C23.2481 18.5015 23.2732 18.4063 23.2721 18.3095V11.6919C23.2732 11.5951 23.2481 11.4999 23.1996 11.4161C23.1511 11.3324 23.0809 11.2634 22.9963 11.2162Z" fill="white"/>
</g>
<defs>
<clipPath id="clip0_2721_16861">
<rect width="17.6471" height="17.6471" fill="white" transform="translate(6.17648 6.17676)"/>
</clipPath>
</defs>
</svg>
