<svg width="41" height="41" viewBox="0 0 41 41" fill="none" xmlns="http://www.w3.org/2000/svg">
<path fill-rule="evenodd" clip-rule="evenodd" d="M0.253418 20.2539C0.253418 14.9496 2.36055 9.8625 6.11128 6.11177C9.86201 2.36104 14.9491 0.253906 20.2534 0.253906C25.5577 0.253906 30.6448 2.36104 34.3956 6.11177C38.1463 9.8625 40.2534 14.9496 40.2534 20.2539C40.2534 25.5582 38.1463 30.6453 34.3956 34.396C30.6448 38.1468 25.5577 40.2539 20.2534 40.2539C14.9491 40.2539 9.86201 38.1468 6.11128 34.396C2.36055 30.6453 0.253418 25.5582 0.253418 20.2539H0.253418ZM19.1121 28.8139L30.6268 14.4192L28.5468 12.7552L18.7281 25.0246L11.7734 19.2299L10.0668 21.2779L19.1121 28.8166V28.8139Z" fill="#2165A2"/>
</svg>
