<svg width="17" height="19" viewBox="0 0 17 19" fill="none" xmlns="http://www.w3.org/2000/svg">
<path fill-rule="evenodd" clip-rule="evenodd" d="M6.07331 1.41608C6.07331 1.12077 6.19062 0.837556 6.39944 0.62874C6.60825 0.419924 6.89147 0.302612 7.18678 0.302612L9.41372 0.302612C9.70903 0.302612 9.99225 0.419924 10.2011 0.62874C10.4099 0.837556 10.5272 1.12077 10.5272 1.41608C10.5272 1.71139 10.4099 1.99461 10.2011 2.20343C9.99225 2.41224 9.70903 2.52955 9.41372 2.52955V2.6075C10.5308 2.76747 11.5994 3.16953 12.5448 3.78555L13.5558 2.77452C13.6323 2.69247 13.7245 2.62666 13.8269 2.58102C13.9294 2.53537 14.0399 2.51083 14.1521 2.50885C14.2642 2.50687 14.3756 2.5275 14.4796 2.5695C14.5835 2.6115 14.678 2.67402 14.7573 2.75332C14.8366 2.83262 14.8991 2.92708 14.9411 3.03106C14.9831 3.13505 15.0038 3.24643 15.0018 3.35856C14.9998 3.47069 14.9753 3.58127 14.9296 3.68371C14.884 3.78615 14.8182 3.87834 14.7361 3.95479L13.8453 4.84557C15.0772 6.09313 15.8525 7.71959 16.0459 9.46216C16.2393 11.2047 15.8396 12.9616 14.9112 14.4489C13.9829 15.9363 12.5803 17.0672 10.9299 17.6589C9.27948 18.2507 7.47779 18.2687 5.81589 17.7101C4.15399 17.1515 2.72896 16.0489 1.77105 14.5805C0.813146 13.112 0.378311 11.3635 0.536806 9.61739C0.695301 7.87131 1.43787 6.22965 2.64453 4.95768C3.85119 3.68571 5.45146 2.85772 7.18678 2.6075V2.52955C6.89147 2.52955 6.60825 2.41224 6.39944 2.20343C6.19062 1.99461 6.07331 1.71139 6.07331 1.41608ZM14.4243 10.3238C14.4243 11.9481 13.7791 13.5057 12.6306 14.6542C11.4821 15.8027 9.92446 16.4479 8.30025 16.4479C6.67604 16.4479 5.11835 15.8027 3.96987 14.6542C2.82138 13.5057 2.17616 11.9481 2.17616 10.3238C2.17616 8.69964 2.82138 7.14195 3.96987 5.99346C5.11835 4.84497 6.67604 4.19976 8.30025 4.19976C9.92446 4.19976 11.4821 4.84497 12.6306 5.99346C13.7791 7.14195 14.4243 8.69964 14.4243 10.3238ZM9.13535 6.70507C9.13535 6.48358 9.04737 6.27117 8.89076 6.11456C8.73414 5.95795 8.52173 5.86996 8.30025 5.86996C8.07877 5.86996 7.86635 5.95795 7.70974 6.11456C7.55313 6.27117 7.46515 6.48358 7.46515 6.70507V10.669L7.71011 10.914L10.2199 13.4237C10.2963 13.5058 10.3885 13.5716 10.491 13.6172C10.5934 13.6629 10.704 13.6874 10.8161 13.6894C10.9282 13.6914 11.0396 13.6708 11.1436 13.6288C11.2476 13.5868 11.342 13.5242 11.4213 13.4449C11.5006 13.3656 11.5632 13.2712 11.6052 13.1672C11.6472 13.0632 11.6678 12.9518 11.6658 12.8397C11.6638 12.7276 11.6393 12.617 11.5937 12.5146C11.548 12.4121 11.4822 12.3199 11.4002 12.2435L9.13535 9.97756V6.70507Z" fill="#2165A2"/>
</svg>
