<svg width="37" height="37" viewBox="0 0 37 37" fill="none" xmlns="http://www.w3.org/2000/svg">
<mask id="mask0_5145_16577" style="mask-type:alpha" maskUnits="userSpaceOnUse" x="0" y="0" width="37" height="37">
<rect x="0.375" y="0.125" width="36" height="36" fill="#D9D9D9"/>
</mask>
<g mask="url(#mask0_5145_16577)">
<circle cx="18.375" cy="18.125" r="17.5" fill="white"/>
<path fill-rule="evenodd" clip-rule="evenodd" d="M19.4357 18.1249L22.6554 14.9052C22.9487 14.6119 22.9487 14.1379 22.6554 13.8447C22.3622 13.5514 21.8882 13.5514 21.5949 13.8447L18.3752 17.0644L15.1554 13.8447C14.8622 13.5514 14.3882 13.5514 14.0949 13.8447C13.8017 14.1379 13.8017 14.6119 14.0949 14.9052L17.3147 18.1249L14.0949 21.3447C13.8017 21.6379 13.8017 22.1119 14.0949 22.4052C14.2412 22.5514 14.4332 22.6249 14.6252 22.6249C14.8172 22.6249 15.0092 22.5514 15.1554 22.4052L18.3752 19.1854L21.5949 22.4052C21.7412 22.5514 21.9332 22.6249 22.1252 22.6249C22.3172 22.6249 22.5092 22.5514 22.6554 22.4052C22.9487 22.1119 22.9487 21.6379 22.6554 21.3447L19.4357 18.1249Z" fill="#333333"/>
<mask id="mask1_5145_16577" style="mask-type:luminance" maskUnits="userSpaceOnUse" x="13" y="13" width="10" height="10">
<path fill-rule="evenodd" clip-rule="evenodd" d="M19.4357 18.1249L22.6554 14.9052C22.9487 14.6119 22.9487 14.1379 22.6554 13.8447C22.3622 13.5514 21.8882 13.5514 21.5949 13.8447L18.3752 17.0644L15.1554 13.8447C14.8622 13.5514 14.3882 13.5514 14.0949 13.8447C13.8017 14.1379 13.8017 14.6119 14.0949 14.9052L17.3147 18.1249L14.0949 21.3447C13.8017 21.6379 13.8017 22.1119 14.0949 22.4052C14.2412 22.5514 14.4332 22.6249 14.6252 22.6249C14.8172 22.6249 15.0092 22.5514 15.1554 22.4052L18.3752 19.1854L21.5949 22.4052C21.7412 22.5514 21.9332 22.6249 22.1252 22.6249C22.3172 22.6249 22.5092 22.5514 22.6554 22.4052C22.9487 22.1119 22.9487 21.6379 22.6554 21.3447L19.4357 18.1249Z" fill="white"/>
</mask>
<g mask="url(#mask1_5145_16577)">
</g>
</g>
</svg>
