<svg width="64" height="40" viewBox="0 0 64 40" fill="none" xmlns="http://www.w3.org/2000/svg">
<path d="M3.75199 31.4246C4.58876 31.4145 5.38054 31.0426 5.92214 30.4046V33.2984C5.91155 34.0913 6.22647 34.8544 6.79424 35.4085C7.3615 35.9627 8.13171 36.2594 8.92396 36.2302C9.71681 36.2004 10.4622 35.8466 10.9871 35.2521V36.5687C10.9871 37.6028 11.5388 38.5582 12.434 39.0749C13.3293 39.5917 14.4326 39.5917 15.3278 39.0749C16.2232 38.5582 16.7747 37.6027 16.7747 36.5687V22.822H47.1624V36.5687C47.1624 37.6028 47.714 38.5582 48.6093 39.0749C49.5046 39.5917 50.6078 39.5917 51.5031 39.0749C52.3984 38.5582 52.95 37.6027 52.95 36.5687V35.2521C53.4839 35.8138 54.2208 36.1378 54.9954 36.1524C55.7701 36.1666 56.5181 35.8693 57.0722 35.3273C57.6258 34.7858 57.9392 34.0444 57.9423 33.2697V30.3753C58.4606 30.9633 59.1954 31.3161 59.9787 31.3524C60.762 31.3888 61.5261 31.1061 62.0969 30.5686C62.6677 30.0311 62.9963 29.2852 63.0069 28.5015V11.3244C62.9963 10.5407 62.6677 9.79472 62.0969 9.25777C61.5261 8.72028 60.762 8.43715 59.9787 8.474C59.1954 8.51033 58.4606 8.8626 57.9423 9.45056V6.55676C57.9317 5.78509 57.6137 5.04978 57.0586 4.51386C56.5034 3.9784 55.757 3.68619 54.9858 3.70284C54.2142 3.72 53.4813 4.04401 52.9499 4.60321V3.28654C52.9499 2.25244 52.3983 1.29713 51.503 0.780336C50.6077 0.263539 49.5044 0.263539 48.6092 0.780336C47.7139 1.29713 47.1623 2.25256 47.1623 3.28654V17.0333H16.7747V3.28654C16.7747 2.25244 16.2231 1.29713 15.3278 0.780336C14.4325 0.263539 13.3292 0.263539 12.434 0.780336C11.5387 1.29713 10.9871 2.25256 10.9871 3.28654V4.63964C10.4531 4.07792 9.71629 3.75341 8.9416 3.73928C8.16691 3.72515 7.41899 4.02241 6.86486 4.56393C6.31121 5.10596 5.99782 5.84734 5.99478 6.62207V9.51587C5.47647 8.92791 4.74165 8.57565 3.95834 8.53931C3.17508 8.50246 2.41093 8.78559 1.84013 9.32308C1.26932 9.86006 0.940784 10.606 0.930176 11.3903V28.5298C0.929672 29.2848 1.22491 30.01 1.7518 30.5506C2.2792 31.0916 2.99704 31.4054 3.75199 31.4246Z" fill="#2165A2"/>
</svg>
