<svg width="24" height="24" viewBox="0 0 24 24" fill="none" xmlns="http://www.w3.org/2000/svg">
<path fill-rule="evenodd" clip-rule="evenodd" d="M17.9655 6.72916L15.2715 4.03516L13.3235 5.98416L16.0185 8.67916L17.9655 6.72916ZM5.0905 17.9962C5.0605 17.9992 5.0305 18.0002 5.0005 18.0002C4.7365 18.0002 4.4815 17.8962 4.2925 17.7072C4.0835 17.4972 3.9775 17.2052 4.0035 16.9102L4.3825 12.7402C4.4245 12.2832 4.6265 11.8512 4.9525 11.5262L13.9485 2.53016C14.6505 1.82516 15.9235 1.86016 16.6645 2.59916L19.4025 5.33716L19.4035 5.33816C20.1685 6.10416 20.1995 7.32216 19.4715 8.05216L10.4745 17.0492C10.1495 17.3742 9.7185 17.5762 9.2605 17.6182L5.0905 17.9962ZM5 20.0005H19C19.55 20.0005 20 20.4505 20 21.0005C20 21.5505 19.55 22.0005 19 22.0005H5C4.45 22.0005 4 21.5505 4 21.0005C4 20.4505 4.45 20.0005 5 20.0005Z" fill="#2165A2"/>
<mask id="mask0_2737_16439" style="mask-type:luminance" maskUnits="userSpaceOnUse" x="3" y="2" width="17" height="20">
<path fill-rule="evenodd" clip-rule="evenodd" d="M17.9655 6.72916L15.2715 4.03516L13.3235 5.98416L16.0185 8.67916L17.9655 6.72916ZM5.0905 17.9962C5.0605 17.9992 5.0305 18.0002 5.0005 18.0002C4.7365 18.0002 4.4815 17.8962 4.2925 17.7072C4.0835 17.4972 3.9775 17.2052 4.0035 16.9102L4.3825 12.7402C4.4245 12.2832 4.6265 11.8512 4.9525 11.5262L13.9485 2.53016C14.6505 1.82516 15.9235 1.86016 16.6645 2.59916L19.4025 5.33716L19.4035 5.33816C20.1685 6.10416 20.1995 7.32216 19.4715 8.05216L10.4745 17.0492C10.1495 17.3742 9.7185 17.5762 9.2605 17.6182L5.0905 17.9962ZM5 20.0005H19C19.55 20.0005 20 20.4505 20 21.0005C20 21.5505 19.55 22.0005 19 22.0005H5C4.45 22.0005 4 21.5505 4 21.0005C4 20.4505 4.45 20.0005 5 20.0005Z" fill="white"/>
</mask>
<g mask="url(#mask0_2737_16439)">
</g>
</svg>
