<svg width="21" height="16" viewBox="0 0 22 16" fill="none" xmlns="http://www.w3.org/2000/svg">
<path d="M11 0.437256C6 0.437256 1.73 3.54726 0 7.93726C1.73 12.3273 6 15.4373 11 15.4373C16 15.4373 20.27 12.3273 22 7.93726C20.27 3.54726 16 0.437256 11 0.437256ZM11 12.9373C8.24 12.9373 6 10.6973 6 7.93726C6 5.17726 8.24 2.93726 11 2.93726C13.76 2.93726 16 5.17726 16 7.93726C16 10.6973 13.76 12.9373 11 12.9373ZM11 4.93726C9.34 4.93726 8 6.27726 8 7.93726C8 9.59726 9.34 10.9373 11 10.9373C12.66 10.9373 14 9.59726 14 7.93726C14 6.27726 12.66 4.93726 11 4.93726Z" fill="#CECECE"/>
</svg>
