<svg width="25" height="36" viewBox="0 0 35 36" fill="none" xmlns="http://www.w3.org/2000/svg">
<path fill-rule="evenodd" clip-rule="evenodd" d="M28.3019 26.8081L30.1977 28.704C30.7679 29.2742 30.7679 30.1958 30.1977 30.766C29.9133 31.0504 29.54 31.1933 29.1667 31.1933C28.7933 31.1933 28.42 31.0504 28.1356 30.766L24.1879 26.8183L23.3333 25.9637L21.3719 24.0023L21.2713 23.9017L17.6221 20.2525C17.5817 20.2547 17.541 20.2558 17.5 20.2558C16.294 20.2558 15.3125 19.2744 15.3125 18.0683C15.3125 18.0274 15.3136 17.9867 15.3159 17.9463L10.621 13.2515L8.0675 10.6979L4.8023 7.4327C4.23209 6.86249 4.23209 5.94083 4.8023 5.37062C5.3725 4.80041 6.29417 4.80041 6.86438 5.37062L9.3625 7.86874L11.499 10.0052L17.378 15.8842C17.4184 15.882 17.4591 15.8808 17.5 15.8808C18.706 15.8808 19.6875 16.8623 19.6875 18.0683C19.6875 18.1093 19.6864 18.15 19.6841 18.1904L25.3954 23.9017L28.3019 26.8081ZM12.5312 8.97445L16.6101 13.0534C16.9003 13.0024 17.1949 12.9645 17.4997 12.9645C20.3143 12.9645 22.6039 15.254 22.6039 18.0686C22.6039 18.3734 22.566 18.668 22.5149 18.9582L26.4262 22.8709L27.6424 24.0872C29.862 22.063 31.2853 19.8478 31.8905 18.7934C32.1472 18.3442 32.1472 17.7915 31.8905 17.3424C30.9601 15.7207 25.821 7.59195 17.106 7.86466C15.3793 7.90987 13.816 8.28174 12.3985 8.8432L12.5312 8.97445ZM20.3408 25.0349L22.3023 26.9949L22.6013 27.2939C21.1838 27.8553 19.6219 28.2272 17.8952 28.271C17.7756 28.2754 17.6546 28.2768 17.5365 28.2768C8.98625 28.2768 4.02792 20.3945 3.10917 18.7933C2.85251 18.3441 2.85251 17.7914 3.10917 17.3422C3.71438 16.2893 5.13771 14.0741 7.3573 12.0499L9.59001 14.2841L12.4863 17.1789C12.4338 17.4691 12.3958 17.7637 12.3958 18.0685C12.3958 20.8831 14.6854 23.1726 17.5 23.1726C17.8048 23.1726 18.0994 23.1347 18.3896 23.0822L20.2402 24.9328L20.3408 25.0349Z" fill="#CECECE"/>
<mask id="mask0_737_12830" style="mask-type:alpha" maskUnits="userSpaceOnUse" x="2" y="4" width="31" height="28">
<path fill-rule="evenodd" clip-rule="evenodd" d="M28.3019 26.8081L30.1977 28.704C30.7679 29.2742 30.7679 30.1958 30.1977 30.766C29.9133 31.0504 29.54 31.1933 29.1667 31.1933C28.7933 31.1933 28.42 31.0504 28.1356 30.766L24.1879 26.8183L23.3333 25.9637L21.3719 24.0023L21.2713 23.9017L17.6221 20.2525C17.5817 20.2547 17.541 20.2558 17.5 20.2558C16.294 20.2558 15.3125 19.2744 15.3125 18.0683C15.3125 18.0274 15.3136 17.9867 15.3159 17.9463L10.621 13.2515L8.0675 10.6979L4.8023 7.4327C4.23209 6.86249 4.23209 5.94083 4.8023 5.37062C5.3725 4.80041 6.29417 4.80041 6.86438 5.37062L9.3625 7.86874L11.499 10.0052L17.378 15.8842C17.4184 15.882 17.4591 15.8808 17.5 15.8808C18.706 15.8808 19.6875 16.8623 19.6875 18.0683C19.6875 18.1093 19.6864 18.15 19.6841 18.1904L25.3954 23.9017L28.3019 26.8081ZM12.5312 8.97445L16.6101 13.0534C16.9003 13.0024 17.1949 12.9645 17.4997 12.9645C20.3143 12.9645 22.6039 15.254 22.6039 18.0686C22.6039 18.3734 22.566 18.668 22.5149 18.9582L26.4262 22.8709L27.6424 24.0872C29.862 22.063 31.2853 19.8478 31.8905 18.7934C32.1472 18.3442 32.1472 17.7915 31.8905 17.3424C30.9601 15.7207 25.821 7.59195 17.106 7.86466C15.3793 7.90987 13.816 8.28174 12.3985 8.8432L12.5312 8.97445ZM20.3408 25.0349L22.3023 26.9949L22.6013 27.2939C21.1838 27.8553 19.6219 28.2272 17.8952 28.271C17.7756 28.2754 17.6546 28.2768 17.5365 28.2768C8.98625 28.2768 4.02792 20.3945 3.10917 18.7933C2.85251 18.3441 2.85251 17.7914 3.10917 17.3422C3.71438 16.2893 5.13771 14.0741 7.3573 12.0499L9.59001 14.2841L12.4863 17.1789C12.4338 17.4691 12.3958 17.7637 12.3958 18.0685C12.3958 20.8831 14.6854 23.1726 17.5 23.1726C17.8048 23.1726 18.0994 23.1347 18.3896 23.0822L20.2402 24.9328L20.3408 25.0349Z" fill="white"/>
</mask>
<g mask="url(#mask0_737_12830)">
</g>
</svg>
