<svg width="21" height="24" viewBox="0 0 21 24" fill="none" xmlns="http://www.w3.org/2000/svg">
<path d="M6.62671 3.12393C6.29572 3.12393 5.97828 3.25542 5.74424 3.48946C5.51019 3.72351 5.37871 4.04094 5.37871 4.37193C5.37871 4.70292 5.51019 5.02035 5.74424 5.2544C5.97828 5.48844 6.29572 5.61993 6.62671 5.61993C6.9577 5.61993 7.27513 5.48844 7.50917 5.2544C7.74322 5.02035 7.8747 4.70292 7.8747 4.37193C7.8747 4.04094 7.74322 3.72351 7.50917 3.48946C7.27513 3.25542 6.9577 3.12393 6.62671 3.12393ZM3.09487 3.12393C3.35271 2.39319 3.83087 1.76041 4.46343 1.31282C5.09599 0.865237 5.85181 0.624878 6.62671 0.624878C7.4016 0.624878 8.15742 0.865237 8.78999 1.31282C9.42255 1.76041 9.9007 2.39319 10.1585 3.12393H19.1067C19.4377 3.12393 19.7551 3.25542 19.9892 3.48946C20.2232 3.72351 20.3547 4.04094 20.3547 4.37193C20.3547 4.70292 20.2232 5.02035 19.9892 5.2544C19.7551 5.48844 19.4377 5.61993 19.1067 5.61993H10.1585C9.9007 6.35067 9.42255 6.98345 8.78999 7.43103C8.15742 7.87862 7.4016 8.11898 6.62671 8.11898C5.85181 8.11898 5.09599 7.87862 4.46343 7.43103C3.83087 6.98345 3.35271 6.35067 3.09487 5.61993H1.63472C1.30373 5.61993 0.986294 5.48844 0.752249 5.2544C0.518204 5.02035 0.386719 4.70292 0.386719 4.37193C0.386719 4.04094 0.518204 3.72351 0.752249 3.48946C0.986294 3.25542 1.30373 3.12393 1.63472 3.12393H3.09487ZM14.1147 10.6119C13.7837 10.6119 13.4663 10.7434 13.2322 10.9774C12.9982 11.2115 12.8667 11.5289 12.8667 11.8599C12.8667 12.1909 12.9982 12.5083 13.2322 12.7424C13.4663 12.9764 13.7837 13.1079 14.1147 13.1079C14.4457 13.1079 14.7631 12.9764 14.9972 12.7424C15.2312 12.5083 15.3627 12.1909 15.3627 11.8599C15.3627 11.5289 15.2312 11.2115 14.9972 10.9774C14.7631 10.7434 14.4457 10.6119 14.1147 10.6119ZM10.5829 10.6119C10.8407 9.88117 11.3189 9.24839 11.9514 8.80081C12.584 8.35322 13.3398 8.11286 14.1147 8.11286C14.8896 8.11286 15.6454 8.35322 16.278 8.80081C16.9105 9.24839 17.3887 9.88117 17.6465 10.6119H19.1067C19.4377 10.6119 19.7551 10.7434 19.9892 10.9774C20.2232 11.2115 20.3547 11.5289 20.3547 11.8599C20.3547 12.1909 20.2232 12.5083 19.9892 12.7424C19.7551 12.9764 19.4377 13.1079 19.1067 13.1079H17.6465C17.3887 13.8387 16.9105 14.4714 16.278 14.919C15.6454 15.3666 14.8896 15.607 14.1147 15.607C13.3398 15.607 12.584 15.3666 11.9514 14.919C11.3189 14.4714 10.8407 13.8387 10.5829 13.1079H1.63472C1.30373 13.1079 0.986294 12.9764 0.752249 12.7424C0.518204 12.5083 0.386719 12.1909 0.386719 11.8599C0.386719 11.5289 0.518204 11.2115 0.752249 10.9774C0.986294 10.7434 1.30373 10.6119 1.63472 10.6119H10.5829ZM6.62671 18.0999C6.29572 18.0999 5.97828 18.2314 5.74424 18.4654C5.51019 18.6995 5.37871 19.0169 5.37871 19.3479C5.37871 19.6789 5.51019 19.9963 5.74424 20.2304C5.97828 20.4644 6.29572 20.5959 6.62671 20.5959C6.9577 20.5959 7.27513 20.4644 7.50917 20.2304C7.74322 19.9963 7.8747 19.6789 7.8747 19.3479C7.8747 19.0169 7.74322 18.6995 7.50917 18.4654C7.27513 18.2314 6.9577 18.0999 6.62671 18.0999ZM3.09487 18.0999C3.35271 17.3692 3.83087 16.7364 4.46343 16.2888C5.09599 15.8412 5.85181 15.6008 6.62671 15.6008C7.4016 15.6008 8.15742 15.8412 8.78999 16.2888C9.42255 16.7364 9.9007 17.3692 10.1585 18.0999H19.1067C19.4377 18.0999 19.7551 18.2314 19.9892 18.4654C20.2232 18.6995 20.3547 19.0169 20.3547 19.3479C20.3547 19.6789 20.2232 19.9963 19.9892 20.2304C19.7551 20.4644 19.4377 20.5959 19.1067 20.5959H10.1585C9.9007 21.3266 9.42255 21.9594 8.78999 22.407C8.15742 22.8546 7.4016 23.0949 6.62671 23.0949C5.85181 23.0949 5.09599 22.8546 4.46343 22.407C3.83087 21.9594 3.35271 21.3266 3.09487 20.5959H1.63472C1.30373 20.5959 0.986294 20.4644 0.752249 20.2304C0.518204 19.9963 0.386719 19.6789 0.386719 19.3479C0.386719 19.0169 0.518204 18.6995 0.752249 18.4654C0.986294 18.2314 1.30373 18.0999 1.63472 18.0999H3.09487Z" fill="white"/>
</svg>
