<svg width="39" height="40" viewBox="0 0 39 40" fill="none" xmlns="http://www.w3.org/2000/svg">
<path d="M26.2301 17.5515L22.2113 21.5704L23.8992 23.2583L24.9441 22.2134C24.7833 23.6333 24.1805 24.8192 23.1356 25.7708C22.0907 26.7214 20.8449 27.1967 19.3981 27.1967C19.023 27.1967 18.6747 27.1635 18.3532 27.097C18.0317 27.0295 17.7102 26.9288 17.3887 26.7948L15.6204 28.5631C16.1831 28.8846 16.7795 29.1391 17.4096 29.3267C18.0387 29.5142 18.7015 29.608 19.3981 29.608C21.5415 29.608 23.3698 28.8846 24.883 27.4378C26.3973 25.991 27.2214 24.2228 27.3554 22.133L28.561 23.2583L30.2489 21.5704L26.2301 17.5515ZM12.5661 25.5892L16.5849 21.5704L14.897 19.8825L13.8522 20.9273C14.0129 19.5074 14.6157 18.3215 15.6606 17.3699C16.7055 16.4193 17.9513 15.944 19.3981 15.944C19.7732 15.944 20.1215 15.9772 20.443 16.0437C20.7645 16.1112 21.086 16.2119 21.4075 16.3459L23.1758 14.5776C22.6132 14.2561 22.0173 14.0016 21.3882 13.8141C20.7581 13.6265 20.0947 13.5327 19.3981 13.5327C17.2547 13.5327 15.4265 14.2561 13.9132 15.7029C12.399 17.1497 11.5748 18.9179 11.4409 21.0077L10.2352 19.8825L8.54733 21.5704L12.5661 25.5892ZM3.32288 34.4305V8.71016H11.6016L14.5755 5.49512H24.2207L27.1946 8.71016H35.4734V34.4305H3.32288Z" fill="white"/>
</svg>
