<svg width="58" height="41" viewBox="0 0 58 41" fill="none" xmlns="http://www.w3.org/2000/svg">
<path d="M7.46351 40.8632C5.0131 40.8632 3.11523 40.0108 1.76991 38.3061C0.424582 36.5995 -0.079914 34.5209 0.256417 32.0705L3.28339 10.4493C3.71582 7.56642 5.00156 5.18809 7.14063 3.31424C9.27777 1.4404 11.7878 0.503479 14.6706 0.503479H43.2107C46.0935 0.503479 48.6035 1.4404 50.7406 3.31424C52.8797 5.18809 54.1654 7.56642 54.5979 10.4493L57.6248 32.0705C57.9612 34.5209 57.4567 36.5995 56.1113 38.3061C54.766 40.0108 52.8682 40.8632 50.4178 40.8632C49.4088 40.8632 48.4718 40.6825 47.607 40.3212C46.7421 39.9618 45.9494 39.4218 45.2286 38.701L38.7423 32.2147H19.139L12.6526 38.701C11.9319 39.4218 11.1391 39.9618 10.2743 40.3212C9.40942 40.6825 8.4725 40.8632 7.46351 40.8632ZM43.3548 23.5662C44.1716 23.5662 44.8558 23.2894 45.4074 22.7359C45.9609 22.1843 46.2376 21.5001 46.2376 20.6833C46.2376 19.8665 45.9609 19.1814 45.4074 18.6279C44.8558 18.0763 44.1716 17.8005 43.3548 17.8005C42.538 17.8005 41.8538 18.0763 41.3022 18.6279C40.7487 19.1814 40.472 19.8665 40.472 20.6833C40.472 21.5001 40.7487 22.1843 41.3022 22.7359C41.8538 23.2894 42.538 23.5662 43.3548 23.5662ZM37.5891 14.9177C38.4059 14.9177 39.0911 14.6409 39.6446 14.0874C40.1962 13.5358 40.472 12.8516 40.472 12.0348C40.472 11.218 40.1962 10.5329 39.6446 9.97936C39.0911 9.42777 38.4059 9.15198 37.5891 9.15198C36.7723 9.15198 36.0881 9.42777 35.5366 9.97936C34.983 10.5329 34.7063 11.218 34.7063 12.0348C34.7063 12.8516 34.983 13.5358 35.5366 14.0874C36.0881 14.6409 36.7723 14.9177 37.5891 14.9177ZM18.8507 23.5662C19.4753 23.5662 19.9923 23.3615 20.4017 22.9521C20.8091 22.5447 21.0128 22.0286 21.0128 21.404V18.5212H23.8957C24.5203 18.5212 25.0373 18.3165 25.4466 17.9072C25.8541 17.4997 26.0578 16.9837 26.0578 16.3591C26.0578 15.7345 25.8541 15.2175 25.4466 14.8081C25.0373 14.4007 24.5203 14.1969 23.8957 14.1969H21.0128V11.3141C21.0128 10.6895 20.8091 10.1725 20.4017 9.76315C19.9923 9.3557 19.4753 9.15198 18.8507 9.15198C18.2261 9.15198 17.7101 9.3557 17.3026 9.76315C16.8933 10.1725 16.6886 10.6895 16.6886 11.3141V14.1969H13.8057C13.1811 14.1969 12.6651 14.4007 12.2577 14.8081C11.8483 15.2175 11.6436 15.7345 11.6436 16.3591C11.6436 16.9837 11.8483 17.4997 12.2577 17.9072C12.6651 18.3165 13.1811 18.5212 13.8057 18.5212H16.6886V21.404C16.6886 22.0286 16.8933 22.5447 17.3026 22.9521C17.7101 23.3615 18.2261 23.5662 18.8507 23.5662Z" fill="#2165A2"/>
</svg>
