<svg width="22" height="22" viewBox="0 0 22 22" fill="none" xmlns="http://www.w3.org/2000/svg">
<path d="M9.23633 10.77C9.23633 11.7613 10.0399 12.5649 11.0313 12.5649C12.0226 12.5649 12.8262 11.7613 12.8262 10.77C12.8262 9.77871 12.0226 8.9751 11.0313 8.9751C10.0399 8.9751 9.23633 9.77871 9.23633 10.77Z" fill="#333333"/>
<path d="M9.23633 3.58936C9.23633 4.58066 10.0399 5.38428 11.0313 5.38428C12.0226 5.38428 12.8262 4.58066 12.8262 3.58936C12.8262 2.59805 12.0226 1.79443 11.0313 1.79443C10.0399 1.79443 9.23633 2.59805 9.23633 3.58936Z" fill="#333333"/>
<path d="M9.23633 17.9497C9.23633 18.941 10.0399 19.7446 11.0313 19.7446C12.0226 19.7446 12.8262 18.941 12.8262 17.9497C12.8262 16.9584 12.0226 16.1548 11.0313 16.1548C10.0399 16.1548 9.23633 16.9584 9.23633 17.9497Z" fill="#333333"/>
</svg>
