<svg width="122" height="96" viewBox="0 0 122 96" fill="none" xmlns="http://www.w3.org/2000/svg">
<circle cx="107.802" cy="17.9851" r="7.436" transform="rotate(-4.82929 107.802 17.9851)" fill="white"/>
<path d="M95.0765 21.6674L77.1491 24.4408C74.7454 26.1424 69.3315 30.0283 66.9053 31.9596C63.8725 34.3736 64.7224 35.9202 66.0502 38.8649C67.1123 41.2207 70.8775 39.9556 72.6274 39.0285L82.8561 31.3312L84.4039 31.5601C83.5221 32.4737 80.8533 35.2946 77.2331 39.2688C73.6128 43.2429 75.4914 49.5158 76.8833 52.1554L75.2433 68.9272C70.8743 73.9716 61.7679 84.5951 60.2943 86.7336C58.4522 89.4067 58.1642 91.3191 59.8931 93.6905C61.2761 95.5876 64.4224 94.4467 65.8227 93.6391L83.4022 72.9132L86.2442 53.3425C90.0814 47.3241 98.1108 34.8076 99.5311 32.8894C101.307 30.4916 102.531 27.9606 101.464 24.904C100.61 22.4586 96.8498 21.7274 95.0765 21.6674Z" fill="white" stroke="white" stroke-width="0.179181"/>
<circle cx="23.7285" cy="7.68773" r="7.25682" fill="white"/>
<path d="M7.96048 27.9352L14.0526 25.3371L20.3239 46.4803L22.2053 65.4734C20.7122 68.848 17.3137 76.278 15.6652 79.0016C13.6047 82.406 13.963 85.1833 16.6507 87.1543C18.8009 88.7311 21.6081 87.0349 22.7429 85.9896L31.3436 66.5485L31.1644 53.11H45.0509C48.9331 54.5136 57.5935 57.5716 61.1772 58.575C65.6567 59.8293 65.8359 60.1876 67.986 57.7687C69.7062 55.8335 67.9263 53.5579 66.8214 52.662L47.9178 45.3156L30.8956 42.0008L26.864 26.7704L32.5978 28.831C35.2258 30.6527 40.9118 34.6364 42.632 35.9982C44.7821 37.7004 47.649 38.8651 49.7096 36.8045C51.3581 35.1561 50.3367 32.8924 49.62 31.9667L36.5398 22.2909C32.3589 21.1561 23.6388 18.6715 22.2053 17.8115C20.7719 16.9514 18.3828 17.1545 17.3675 17.3635C13.4852 18.8268 5.16526 22.076 2.94342 23.3661C0.721578 24.6562 0.882841 27.0691 1.2412 28.1144C2.34615 33.43 4.64564 44.4198 5.004 45.8532C5.45195 47.6451 6.43744 48.7201 9.12516 48.2722C11.2753 47.9138 11.574 45.8532 11.4545 44.8678L7.96048 27.9352Z" fill="white" stroke="white" stroke-width="0.179181"/>
</svg>
