<svg width="20" height="20" viewBox="0 0 20 20" fill="none" xmlns="http://www.w3.org/2000/svg">
<path d="M2.25 0C1.65326 0 1.08097 0.237053 0.65901 0.65901C0.237053 1.08097 0 1.65326 0 2.25V9.75C0 10.3467 0.237053 10.919 0.65901 11.341C1.08097 11.7629 1.65326 12 2.25 12H4.192L6.086 15.6C6.14958 15.7211 6.24505 15.8224 6.36208 15.8932C6.47911 15.9639 6.61326 16.0013 6.75 16.0013C6.88674 16.0013 7.02089 15.9639 7.13792 15.8932C7.25495 15.8224 7.35042 15.7211 7.414 15.6L9.308 12H11.25C11.8467 12 12.419 11.7629 12.841 11.341C13.2629 10.919 13.5 10.3467 13.5 9.75V2.25C13.5 1.95453 13.4418 1.66194 13.3287 1.38896C13.2157 1.11598 13.0499 0.867941 12.841 0.65901C12.6321 0.450078 12.384 0.284344 12.111 0.171271C11.8381 0.058198 11.5455 0 11.25 0H2.25ZM3.5 4.25C3.5 4.05109 3.57902 3.86032 3.71967 3.71967C3.86032 3.57902 4.05109 3.5 4.25 3.5H5.75C5.94891 3.5 6.13968 3.57902 6.28033 3.71967C6.42098 3.86032 6.5 4.05109 6.5 4.25C6.5 6.401 5.212 7.849 4.78 8.28C4.71134 8.35369 4.62854 8.41279 4.53654 8.45378C4.44454 8.49477 4.34523 8.51682 4.24452 8.51859C4.14382 8.52037 4.04379 8.50184 3.9504 8.46412C3.85701 8.4264 3.77218 8.37026 3.70096 8.29904C3.62974 8.22782 3.5736 8.14299 3.53588 8.0496C3.49816 7.95621 3.47963 7.85618 3.48141 7.75548C3.48319 7.65478 3.50523 7.55546 3.54622 7.46346C3.58721 7.37146 3.64631 7.28866 3.72 7.22C3.92 7.019 4.332 6.558 4.635 5.894C4.52115 5.9621 4.39127 5.99879 4.25861 6.00031C4.12595 6.00183 3.99526 5.96814 3.87988 5.90267C3.76449 5.8372 3.66854 5.74229 3.6018 5.62763C3.53506 5.51298 3.49994 5.38267 3.5 5.25V4.25ZM7.5 4.25C7.5 4.05109 7.57902 3.86032 7.71967 3.71967C7.86032 3.57902 8.05109 3.5 8.25 3.5H9.75C9.94891 3.5 10.1397 3.57902 10.2803 3.71967C10.421 3.86032 10.5 4.05109 10.5 4.25C10.5 6.401 9.212 7.849 8.78 8.28C8.71134 8.35369 8.62854 8.41279 8.53654 8.45378C8.44454 8.49477 8.34523 8.51682 8.24452 8.51859C8.14382 8.52037 8.04379 8.50184 7.9504 8.46412C7.85701 8.4264 7.77218 8.37026 7.70096 8.29904C7.62974 8.22782 7.5736 8.14299 7.53588 8.0496C7.49816 7.95621 7.47963 7.85618 7.48141 7.75548C7.48318 7.65478 7.50523 7.55546 7.54622 7.46346C7.58721 7.37146 7.64631 7.28866 7.72 7.22C7.92 7.019 8.332 6.558 8.635 5.894C8.52115 5.9621 8.39127 5.99879 8.25861 6.00031C8.12595 6.00183 7.99526 5.96814 7.87988 5.90267C7.76449 5.8372 7.66854 5.74229 7.6018 5.62763C7.53507 5.51298 7.49994 5.38267 7.5 5.25V4.25ZM0.75 14.5H4.378L5.168 16H0.75C0.551088 16 0.360322 15.921 0.21967 15.7803C0.0790175 15.6397 0 15.4489 0 15.25C0 15.0511 0.0790175 14.8603 0.21967 14.7197C0.360322 14.579 0.551088 14.5 0.75 14.5ZM19.25 16H8.333L9.123 14.5H19.25C19.4489 14.5 19.6397 14.579 19.7803 14.7197C19.921 14.8603 20 15.0511 20 15.25C20 15.4489 19.921 15.6397 19.7803 15.7803C19.6397 15.921 19.4489 16 19.25 16ZM0 19.25C0 19.0511 0.0790175 18.8603 0.21967 18.7197C0.360322 18.579 0.551088 18.5 0.75 18.5H12.75C12.9489 18.5 13.1397 18.579 13.2803 18.7197C13.421 18.8603 13.5 19.0511 13.5 19.25C13.5 19.4489 13.421 19.6397 13.2803 19.7803C13.1397 19.921 12.9489 20 12.75 20H0.75C0.551088 20 0.360322 19.921 0.21967 19.7803C0.0790175 19.6397 0 19.4489 0 19.25Z" fill="white"/>
</svg>
