<svg width="11" height="15" viewBox="0 0 11 15" fill="none" xmlns="http://www.w3.org/2000/svg">
<path d="M5.87577 0.392212C3.12186 0.392212 0.894531 2.61954 0.894531 5.37345C0.894531 9.10939 5.87577 14.6243 5.87577 14.6243C5.87577 14.6243 10.857 9.10939 10.857 5.37345C10.857 2.61954 8.62969 0.392212 5.87577 0.392212ZM5.87577 7.15247C5.40395 7.15247 4.95145 6.96504 4.61782 6.63141C4.28419 6.29778 4.09676 5.84528 4.09676 5.37345C4.09676 4.90163 4.28419 4.44913 4.61782 4.1155C4.95145 3.78187 5.40395 3.59444 5.87577 3.59444C6.3476 3.59444 6.8001 3.78187 7.13373 4.1155C7.46736 4.44913 7.65479 4.90163 7.65479 5.37345C7.65479 5.84528 7.46736 6.29778 7.13373 6.63141C6.8001 6.96504 6.3476 7.15247 5.87577 7.15247Z" fill="white"/>
</svg>
