<svg width="44" height="64" viewBox="0 0 44 64" fill="none" xmlns="http://www.w3.org/2000/svg">
<path d="M42.9166 37.8087C44.1682 35.2463 43.1744 32.1903 40.6562 30.8502C38.8082 29.8708 37.5345 28.126 37.1734 26.0645C36.6799 23.2519 34.0809 21.3593 31.2536 21.7645C29.1848 22.0516 27.1304 21.3891 25.628 19.931C23.5736 17.9505 20.3635 17.9505 18.3091 19.931C16.8067 21.3891 14.76 22.0589 12.6835 21.7645C9.85604 21.3598 7.25672 23.2519 6.76365 26.0645C6.4031 28.1261 5.12877 29.8713 3.28089 30.8502C0.762693 32.1902 -0.2312 35.2463 1.02053 37.8087C1.94093 39.6936 1.94093 41.8437 1.02053 43.7285C-0.231134 46.2909 0.762706 49.3465 3.28089 50.6864C5.1289 51.6659 6.4026 53.4107 6.76365 55.4722C7.25723 58.2848 9.85617 60.1774 12.6835 59.7721C13.0004 59.728 13.324 59.7059 13.6409 59.7059C15.3784 59.7059 17.0353 60.3762 18.3091 61.6057C20.3635 63.5861 23.5736 63.5861 25.628 61.6057C27.1304 60.1475 29.1843 59.4778 31.2536 59.7722C34.0811 60.1769 36.6804 58.2848 37.1735 55.4722C37.534 53.4105 38.8083 51.6653 40.6562 50.6864C43.1744 49.3465 44.1683 46.2904 42.9166 43.728C41.9962 41.8436 41.9962 39.6935 42.9166 37.8086L42.9166 37.8087ZM21.9684 58.4991C12.1903 58.4991 4.2377 50.5469 4.2377 40.7684C4.2377 30.9903 12.1899 23.0377 21.9684 23.0377C31.7469 23.0377 39.6991 30.9899 39.6991 40.7684C39.6991 50.5465 31.7469 58.4991 21.9684 58.4991Z" fill="#2165A2"/>
<path d="M21.1873 13.3407L19.8181 17.3315C18.8977 17.6407 18.0287 18.1486 17.2849 18.878C16.2171 19.9088 14.7959 20.4245 13.3311 20.3434L6.78516 0.455017H16.7621L21.1873 13.3407Z" fill="#2165A2"/>
<path d="M37.1509 0.455149L30.6049 20.3435C29.1395 20.4247 27.7184 19.909 26.6511 18.8781C25.2151 17.4862 23.3301 16.8606 21.4971 16.9932L27.1741 0.455017L37.1509 0.455149Z" fill="#2165A2"/>
<path d="M21.9685 24.5112C13.0076 24.5112 5.71045 31.8081 5.71045 40.7693C5.71045 49.7305 13.0073 57.0274 21.9685 57.0274C30.9297 57.0274 38.2266 49.7305 38.2266 40.7693C38.2266 31.8081 30.9297 24.5112 21.9685 24.5112ZM27.3214 38.4131C27.0785 40.2245 25.6132 41.8075 24.0887 42.6397V47.7131H26.327C26.5848 47.7131 26.8129 47.8384 26.9531 48.0516L28.4698 50.4593C28.6095 50.6874 28.6244 50.975 28.4918 51.203C28.3593 51.4388 28.1164 51.5857 27.8437 51.5857H16.0927C15.8205 51.5857 15.5771 51.4383 15.4446 51.203C15.312 50.9745 15.3269 50.6874 15.4666 50.4593L16.9833 48.0516C17.123 47.8379 17.3516 47.7131 17.6094 47.7131H19.8477V42.6397C18.3238 41.8076 16.8585 40.2247 16.615 38.4131C13.2134 37.0802 12.9334 33.6715 13.294 31.9189C13.3453 30.6452 14.391 29.6292 15.6725 29.6292C16.7254 29.6292 17.6093 30.3216 17.9258 31.2712H26.0105C26.3269 30.3215 27.2108 29.6292 28.2637 29.6292C29.5447 29.6292 30.5904 30.6452 30.6423 31.9189C31.0029 33.6713 30.7235 37.0802 27.3213 38.4131H27.3214Z" fill="#2165A2"/>
<path d="M16.5788 31.9988V32.006V36.7697C14.1048 35.3484 14.7232 32.3073 14.7529 32.1677C14.7601 32.1086 14.7678 32.0573 14.7678 32.0059C14.7678 31.5051 15.1725 31.1004 15.6733 31.1004C16.174 31.1004 16.5788 31.5056 16.5788 31.9987L16.5788 31.9988Z" fill="#2165A2"/>
<path d="M27.358 36.7696V32.0059V31.9987C27.358 31.5051 27.7627 31.1004 28.2634 31.1004C28.7642 31.1004 29.1689 31.5051 29.1689 32.0059C29.1689 32.0573 29.1761 32.1091 29.1838 32.1605C29.2136 32.3079 29.832 35.3485 27.3579 36.7697L27.358 36.7696Z" fill="#2165A2"/>
<path d="M22.6166 43.1981V47.7117H21.3208V43.1981C21.5417 43.2495 21.7625 43.2793 21.969 43.2793C22.1744 43.2793 22.3958 43.25 22.6166 43.1981Z" fill="#2165A2"/>
<path d="M26.5111 50.1128H17.4253L18.0144 49.1852H25.922L26.5111 50.1128Z" fill="#2165A2"/>
<path d="M25.8854 32.7421V37.889C25.8854 39.9949 23.2568 41.8064 21.9681 41.8064C20.6794 41.8064 18.0508 39.9949 18.0508 37.889V32.7421H25.8854Z" fill="#2165A2"/>
</svg>
