<svg width="31" height="31" viewBox="0 0 31 31" fill="none" xmlns="http://www.w3.org/2000/svg">
<g clip-path="url(#clip0_3685_16362)">
<path d="M16.757 14.9648H15.0904C15.0904 16.4648 14.6737 17.8815 13.9237 19.1315L15.1737 20.3815C16.1737 18.7148 16.6737 16.8815 16.757 14.9648Z" fill="white"/>
<path d="M21.0069 14.9645V8.29786C21.0069 5.04786 18.3403 2.46453 15.0903 2.54786C12.6736 2.54786 10.4236 4.13119 9.67358 6.46453L20.5069 17.2979C20.8403 16.5479 21.0069 15.7145 21.0069 14.9645Z" fill="white"/>
<path d="M21.2987 22.9648L27.0487 28.7148L28.2153 27.5482L3.632 2.96484L2.46533 4.13151L9.46533 11.1315V14.9648C9.46533 18.2148 12.0487 20.7982 15.2987 20.7982C16.382 20.7982 17.382 20.5482 18.2987 19.9648L20.132 21.7982C18.7153 22.7982 17.0487 23.2982 15.2987 23.2982C10.7987 23.4648 7.132 19.8815 6.96533 15.4648V14.9648H5.29867C5.382 20.1315 9.29867 24.4648 14.4653 24.9648V27.4648H11.9653C11.4653 27.4648 11.132 27.7982 11.132 28.2982C11.132 28.7982 11.4653 29.1315 11.9653 29.1315H18.632C19.132 29.1315 19.4653 28.7982 19.4653 28.2982C19.4653 27.7982 19.132 27.4648 18.632 27.4648H16.132V24.9648C17.9653 24.7982 19.7987 24.1315 21.2987 22.9648Z" fill="white"/>
</g>
<defs>
<clipPath id="clip0_3685_16362">
<rect width="30" height="30" fill="white" transform="translate(0.37085 0.797852)"/>
</clipPath>
</defs>
</svg>
