<svg width="31" height="31" viewBox="0 0 31 31" fill="none" xmlns="http://www.w3.org/2000/svg">
<g clip-path="url(#clip0_3685_16334)">
<path d="M15.9694 20.7523C19.2194 20.7523 21.8028 18.1689 21.8028 14.9189V8.25228C21.8028 5.00228 19.2194 2.41895 15.9694 2.41895C12.7194 2.41895 10.1361 5.00228 10.1361 8.25228V14.9189C10.1361 18.1689 12.7194 20.7523 15.9694 20.7523Z" fill="white"/>
<path d="M25.9695 14.9189H24.3028C24.3028 19.5023 20.5528 23.2523 15.9695 23.2523C11.3861 23.2523 7.63615 19.5023 7.63615 14.9189H5.96948C5.96948 20.1689 9.96948 24.4189 15.1361 24.8356V27.4189H12.6361C12.1361 27.4189 11.8028 27.7523 11.8028 28.2523C11.8028 28.7523 12.1361 29.0856 12.6361 29.0856H19.3028C19.8028 29.0856 20.1361 28.7523 20.1361 28.2523C20.1361 27.7523 19.8028 27.4189 19.3028 27.4189H16.8028V24.8356C21.9695 24.4189 25.9695 20.1689 25.9695 14.9189Z" fill="white"/>
</g>
<defs>
<clipPath id="clip0_3685_16334">
<rect width="30" height="30" fill="white" transform="translate(0.969482 0.751953)"/>
</clipPath>
</defs>
</svg>
