<svg width="32" height="29" viewBox="0 0 32 29" fill="none" xmlns="http://www.w3.org/2000/svg">
<path d="M19.5101 1.87209C19.5101 1.68127 19.4595 1.49386 19.3635 1.32899C19.2674 1.16411 19.1293 1.02767 18.9633 0.93359C18.7973 0.839511 18.6093 0.791161 18.4185 0.793475C18.2277 0.79579 18.0409 0.848686 17.8773 0.946764L7.34927 7.26011H3.33306C1.54496 7.26011 0.0976562 8.70525 0.0976562 10.4955V19.1276C0.0976562 20.9157 1.5428 22.363 3.33306 22.363H7.34927L17.8751 28.6806C18.0388 28.7792 18.2258 28.8326 18.4169 28.8352C18.6081 28.8378 18.7964 28.7895 18.9628 28.6954C19.1291 28.6012 19.2675 28.4646 19.3636 28.2994C19.4598 28.1342 19.5103 27.9464 19.5101 27.7553V1.87209ZM28.5843 14.8051L31.6342 17.8528L30.1092 19.3778L27.0593 16.33L24.0094 19.3778L22.4845 17.8528L25.5344 14.8051L22.4845 11.7573L24.0094 10.2324L27.0593 13.2801L30.1114 10.2324L31.6342 11.7573L28.5843 14.8051Z" fill="white"/>
</svg>
