<svg width="26" height="26" viewBox="0 0 26 26" fill="none" xmlns="http://www.w3.org/2000/svg">
<path d="M8.0296 6.18914L3.0046 1.16414L1.2371 2.93164L23.7371 25.4316L25.5046 23.6641L22.9796 21.1391C24.8535 18.9574 25.8794 16.1739 25.8696 13.2979C25.8696 8.18414 22.7796 3.98164 18.3708 2.04789V4.54789C21.3546 6.28039 23.3696 9.60664 23.3696 13.2979C23.3632 15.5186 22.6295 17.6761 21.2808 19.4404L19.6733 17.8329C20.4258 16.4679 20.8708 14.7854 20.8708 13.2979C20.8708 11.0841 19.9021 8.42289 18.3708 7.04789V16.5304L15.8708 14.0304V0.962891L8.0296 6.18914ZM3.37085 19.5479H6.7421L15.8708 25.6329V20.9491L2.24835 7.32664C1.83571 7.53319 1.48847 7.85018 1.24528 8.24234C1.00208 8.6345 0.872465 9.08645 0.87085 9.54789V17.0479C0.87085 18.4266 1.9921 19.5479 3.37085 19.5479Z" fill="white"/>
</svg>
