<svg width="56" height="56" viewBox="0 0 56 56" fill="none" xmlns="http://www.w3.org/2000/svg">
<g clip-path="url(#clip0_1214_13813)">
<path d="M47.267 26.7689C47.4565 26.9583 47.6509 27.1618 47.8502 27.3793C48.0487 27.5975 48.2332 27.8109 48.4037 28.0192L41.7541 34.6689L34.9339 30.1221L34.9339 23.5293C32.6227 22.961 30.2686 22.6719 27.8717 22.662C25.4755 22.6529 23.1976 22.9326 21.0379 23.5009L21.0095 30.0085L14.2462 34.6689L7.59652 28.0193C7.74808 27.7919 7.92805 27.574 8.13645 27.3657L8.73321 26.7689C11.1771 24.325 14.1041 22.4877 17.5141 21.2571C20.9242 20.0249 24.4245 19.4043 28.0149 19.3952C31.6046 19.3853 35.0995 20.0006 38.4997 21.2412C41.9007 22.4824 44.8231 24.325 47.267 26.7689Z" fill="white"/>
</g>
<defs>
<clipPath id="clip0_1214_13813">
<rect width="38.5806" height="38.5806" fill="white" transform="translate(28.0001 55.2432) rotate(-135)"/>
</clipPath>
</defs>
</svg>
