<svg width="23" height="21" viewBox="0 0 23 21" fill="none" xmlns="http://www.w3.org/2000/svg">
<path d="M20.7987 20.9278C20.3204 20.9278 19.9197 20.7658 19.5967 20.4417C19.2726 20.1187 19.1106 19.718 19.1106 19.2397V2.35831C19.1106 1.88 19.2726 1.47879 19.5967 1.15466C19.9197 0.831665 20.3204 0.670166 20.7987 0.670166C21.277 0.670166 21.6777 0.831665 22.0007 1.15466C22.3248 1.47879 22.4868 1.88 22.4868 2.35831V19.2397C22.4868 19.718 22.3248 20.1187 22.0007 20.4417C21.6777 20.7658 21.277 20.9278 20.7987 20.9278ZM3.15763 19.1975C2.59492 19.5914 2.01814 19.6195 1.42729 19.2819C0.83644 18.9443 0.541016 18.4378 0.541016 17.7626V3.83543C0.541016 3.16017 0.83644 2.66048 1.42729 2.33636C2.01814 2.01336 2.59492 2.03475 3.15763 2.40051L13.6241 9.40629C14.1305 9.74392 14.3838 10.2082 14.3838 10.799C14.3838 11.3899 14.1305 11.8541 13.6241 12.1917L3.15763 19.1975Z" fill="white"/>
</svg>
