<svg width="74" height="74" viewBox="0 0 74 74" fill="none" xmlns="http://www.w3.org/2000/svg">
<path d="M27.8025 27.271V46.73C27.8025 48.1243 28.439 49.1851 29.712 49.9126C30.985 50.64 32.2278 50.5794 33.4402 49.7307L48.5346 40.0921C49.6864 39.3647 50.2622 38.3341 50.2622 37.0005C50.2622 35.6668 49.6864 34.6363 48.5346 33.9089L33.4402 24.2703C32.2278 23.4216 30.985 23.361 29.712 24.0884C28.439 24.8158 27.8025 25.8767 27.8025 27.271ZM36.8955 73.3726C31.864 73.3726 27.1357 72.4172 22.7104 70.5064C18.2851 68.5981 14.4358 66.0072 11.1623 62.7337C7.88878 59.4602 5.29788 55.6109 3.38956 51.1856C1.47881 46.7603 0.523438 42.032 0.523438 37.0005C0.523438 31.969 1.47881 27.2407 3.38956 22.8154C5.29788 18.3901 7.88878 14.5407 11.1623 11.2672C14.4358 7.99376 18.2851 5.40165 22.7104 3.4909C27.1357 1.58258 31.864 0.628418 36.8955 0.628418C41.927 0.628418 46.6553 1.58258 51.0806 3.4909C55.5059 5.40165 59.3553 7.99376 62.6287 11.2672C65.9022 14.5407 68.4931 18.3901 70.4015 22.8154C72.3122 27.2407 73.2676 31.969 73.2676 37.0005C73.2676 42.032 72.3122 46.7603 70.4015 51.1856C68.4931 55.6109 65.9022 59.4602 62.6287 62.7337C59.3553 66.0072 55.5059 68.5981 51.0806 70.5064C46.6553 72.4172 41.927 73.3726 36.8955 73.3726Z" fill="white"/>
</svg>
