<svg width="23" height="21" viewBox="0 0 23 21" fill="none" xmlns="http://www.w3.org/2000/svg">
<path d="M2.63685 0.670176C3.11516 0.670176 3.51581 0.832237 3.83881 1.15636C4.16293 1.47936 4.32499 1.88001 4.32499 2.35832L4.32499 19.2397C4.32499 19.718 4.16293 20.1192 3.83881 20.4434C3.51581 20.7664 3.11516 20.9279 2.63685 20.9279C2.15854 20.9279 1.75789 20.7664 1.43489 20.4434C1.11077 20.1192 0.948712 19.718 0.948712 19.2397L0.948713 2.35832C0.948713 1.88001 1.11077 1.47936 1.4349 1.15636C1.75789 0.832237 2.15855 0.670176 2.63685 0.670176ZM20.2779 2.40052C20.8406 2.00662 21.4174 1.97849 22.0083 2.31611C22.5991 2.65374 22.8945 3.16018 22.8945 3.83544L22.8945 17.7626C22.8945 18.4378 22.5991 18.9375 22.0083 19.2617C21.4174 19.5847 20.8406 19.5633 20.2779 19.1975L9.81145 12.1917C9.305 11.8541 9.05178 11.3899 9.05178 10.799C9.05178 10.2082 9.30501 9.74393 9.81145 9.4063L20.2779 2.40052Z" fill="white"/>
</svg>
