<svg width="40" height="40" viewBox="0 0 40 40" fill="none" xmlns="http://www.w3.org/2000/svg">
<path d="M36.6467 21.988C36.6492 20.7648 36.3455 19.5604 35.7633 18.4847C35.1811 17.4089 34.3389 16.496 33.3135 15.829C32.2881 15.1621 31.1121 14.7625 29.8927 14.6665C28.6732 14.5705 27.4492 14.7812 26.332 15.2794C25.2149 15.7777 24.2402 16.5476 23.4969 17.519C22.7535 18.4904 22.2651 19.6324 22.0761 20.8409C21.8871 22.0494 22.0037 23.286 22.415 24.438C22.8264 25.59 23.5195 26.6206 24.4312 27.4361V36.6466L29.3174 34.3342L34.2036 36.6466V27.4361C34.9716 26.7513 35.5862 25.9119 36.0072 24.9731C36.4283 24.0342 36.6462 23.0169 36.6467 21.988ZM31.7605 32.7865L29.3174 31.6297L26.8743 32.7865V28.8898C28.4532 29.4599 30.1817 29.4599 31.7605 28.8898V32.7865ZM28.2995 16.3892C27.3331 16.3892 29.2836 20.962 28.4801 20.4251C27.6765 19.8882 27.7664 22.2108 27.3966 21.318C27.0268 20.4251 26.7413 20.7916 26.9299 19.8438C27.1184 18.896 30.4109 26.1921 31.0942 25.5088C31.7776 24.8254 27.4163 17.3842 28.3642 17.1957C29.312 17.0071 24.48 21.0837 25.3728 21.4536C26.2657 21.8234 28.4276 21.85 28.9645 22.6535C29.5014 23.4571 28.1894 21.3965 28.1894 22.3629C28.1878 23.6583 30.1712 20.3811 29.2552 21.2971C28.3392 22.2131 29.5949 16.3876 28.2995 16.3892ZM10.9941 17.1018H19.545V19.5449H10.9941V17.1018ZM10.9941 9.77246H23.2097V12.2156H10.9941V9.77246Z" fill="white"/>
<path d="M7.32933 36.6468C6.68158 36.6462 6.06054 36.3886 5.60251 35.9305C5.14448 35.4725 4.88688 34.8515 4.88623 34.2037V4.88646C4.88688 4.23871 5.14448 3.61767 5.60251 3.15964C6.06054 2.70161 6.68158 2.44401 7.32933 2.44336H26.8742C27.5219 2.44401 28.143 2.70161 28.601 3.15964C29.059 3.61767 29.3166 4.23871 29.3173 4.88646V9.77267H26.8742V4.88646H7.32933V34.2037H19.5449V36.6468H7.32933Z" fill="white"/>
</svg>
