<svg width="35" height="24" viewBox="0 0 35 24" fill="none" xmlns="http://www.w3.org/2000/svg">
<path opacity="0.9" d="M27.1045 8.71931V1.99054C27.1045 1.48066 26.902 0.991667 26.5414 0.631128C26.1809 0.270588 25.6919 0.0680389 25.182 0.0680389H2.11196C1.60208 0.0680389 1.11308 0.270588 0.752542 0.631128C0.392002 0.991667 0.189453 1.48066 0.189453 1.99054V21.2156C0.189453 21.7255 0.392002 22.2145 0.752542 22.575C1.11308 22.9355 1.60208 23.1381 2.11196 23.1381H25.182C25.6919 23.1381 26.1809 22.9355 26.5414 22.575C26.902 22.2145 27.1045 21.7255 27.1045 21.2156V14.4868L34.7945 22.1768V1.02929L27.1045 8.71931Z" fill="white"/>
</svg>
