<svg width="36" height="36" viewBox="0 0 36 36" fill="none" xmlns="http://www.w3.org/2000/svg">
<g clip-path="url(#clip0_1214_14538)">
<path d="M18.238 33.7637C14.1769 33.7637 10.2821 32.1504 7.41046 29.2787C4.53881 26.4071 2.92554 22.5123 2.92554 18.4512C2.92554 14.39 4.53881 10.4952 7.41046 7.6236C10.2821 4.75195 14.1769 3.13867 18.238 3.13867C22.2992 3.13867 26.194 4.75195 29.0656 7.6236C31.9373 10.4952 33.5505 14.39 33.5505 18.4512C33.5505 22.5123 31.9373 26.4071 29.0656 29.2787C26.194 32.1504 22.2992 33.7637 18.238 33.7637ZM18.238 35.9512C22.8793 35.9512 27.3305 34.1074 30.6124 30.8255C33.8943 27.5437 35.738 23.0925 35.738 18.4512C35.738 13.8099 33.8943 9.35869 30.6124 6.0768C27.3305 2.79492 22.8793 0.951172 18.238 0.951172C13.5967 0.951172 9.14556 2.79492 5.86367 6.0768C2.58178 9.35869 0.738037 13.8099 0.738037 18.4512C0.738037 23.0925 2.58178 27.5437 5.86367 30.8255C9.14556 34.1074 13.5967 35.9512 18.238 35.9512Z" fill="white"/>
<path d="M24.8005 18.4512C24.8005 20.1917 24.1091 21.8609 22.8784 23.0916C21.6477 24.3223 19.9785 25.0137 18.238 25.0137C16.4976 25.0137 14.8284 24.3223 13.5976 23.0916C12.3669 21.8609 11.6755 20.1917 11.6755 18.4512C11.6755 16.7107 12.3669 15.0415 13.5976 13.8108C14.8284 12.5801 16.4976 11.8887 18.238 11.8887C19.9785 11.8887 21.6477 12.5801 22.8784 13.8108C24.1091 15.0415 24.8005 16.7107 24.8005 18.4512Z" fill="white"/>
</g>
<defs>
<clipPath id="clip0_1214_14538">
<rect width="35" height="35" fill="white" transform="translate(0.738037 0.951172)"/>
</clipPath>
</defs>
</svg>
