<svg width="23" height="27" viewBox="0 0 23 27" fill="none" xmlns="http://www.w3.org/2000/svg">
<path d="M11.2469 4.54618V0.703364C11.2469 0.0835544 10.5031 -0.219464 10.0761 0.22129L4.84216 5.44146C4.56669 5.71693 4.56669 6.14391 4.84216 6.41938L10.0623 11.6396C10.5031 12.0665 11.2469 11.7635 11.2469 11.1437V7.30089C16.3844 7.30089 20.4476 12.0114 19.3182 17.3418C18.6708 20.4684 16.1365 22.989 13.0236 23.6363C8.10649 24.6693 3.7265 21.2948 3.06537 16.7358C3.01627 16.412 2.85343 16.1164 2.60607 15.9018C2.3587 15.6873 2.043 15.5679 1.71556 15.565C0.88915 15.565 0.22802 16.295 0.338208 17.1214C1.19217 23.168 6.94951 27.6444 13.4644 26.3773C17.7617 25.5371 21.2189 22.0799 22.0591 17.7826C23.4227 10.7167 18.051 4.54618 11.2469 4.54618Z" fill="white"/>
</svg>
