<svg width="17" height="22" viewBox="0 0 17 22" fill="none" xmlns="http://www.w3.org/2000/svg">
<path d="M13.3775 7.96065C13.3775 8.92933 13.0902 9.87627 12.552 10.6817C12.0139 11.4871 11.2489 12.1149 10.354 12.4856C9.45904 12.8563 8.47426 12.9533 7.52419 12.7643C6.57412 12.5753 5.70142 12.1089 5.01645 11.4239C4.33149 10.7389 3.86502 9.86623 3.67604 8.91615C3.48706 7.96608 3.58405 6.9813 3.95475 6.08635C4.32545 5.1914 4.95321 4.42647 5.75864 3.8883C6.56408 3.35013 7.51101 3.06288 8.4797 3.06288C9.77867 3.06288 11.0244 3.57889 11.9429 4.4974C12.8615 5.41591 13.3775 6.66168 13.3775 7.96065ZM16.1762 7.96065C16.1763 9.09436 15.9255 10.214 15.4416 11.2393C14.9577 12.2645 14.2528 13.1699 13.3775 13.8904V20.5549C13.3775 20.7405 13.3038 20.9184 13.1725 21.0497C13.0413 21.1809 12.8634 21.2546 12.6778 21.2546C12.5692 21.2523 12.4622 21.2285 12.3629 21.1846L8.4797 19.2343L4.59647 21.1846C4.48924 21.2376 4.37024 21.2622 4.25081 21.256C4.13138 21.2499 4.01552 21.2133 3.91428 21.1496C3.81221 21.0877 3.72795 21.0003 3.6697 20.8961C3.61146 20.7919 3.58121 20.6743 3.58193 20.5549V13.8904C2.58133 13.065 1.80558 12 1.32676 10.7945C0.847942 9.58896 0.681579 8.28196 0.843128 6.99492C1.00468 5.70787 1.4889 4.48254 2.2508 3.43274C3.01271 2.38294 4.02759 1.54274 5.20116 0.99018C6.37473 0.437624 7.66891 0.190643 8.96349 0.27218C10.2581 0.353717 11.511 0.761127 12.606 1.45656C13.701 2.152 14.6024 3.1129 15.2266 4.25C15.8508 5.38709 16.1774 6.6635 16.1762 7.96065ZM14.7768 7.96065C14.7768 6.71519 14.4075 5.4977 13.7156 4.46215C13.0236 3.42659 12.0402 2.61947 10.8895 2.14285C9.73886 1.66624 8.47271 1.54153 7.25119 1.78451C6.02966 2.02749 4.90762 2.62723 4.02695 3.5079C3.14628 4.38857 2.54654 5.51061 2.30356 6.73214C2.06059 7.95366 2.18529 9.2198 2.66191 10.3705C3.13852 11.5211 3.94564 12.5046 4.9812 13.1965C6.01676 13.8885 7.23424 14.2578 8.4797 14.2578C10.1491 14.2555 11.7494 13.5913 12.9299 12.4108C14.1103 11.2304 14.7745 9.63004 14.7768 7.96065Z" fill="#A7A7A7"/>
</svg>
