<svg width="19" height="21" viewBox="0 0 19 21" fill="none" xmlns="http://www.w3.org/2000/svg">
<path d="M15.5863 20.7122C14.7561 20.7122 14.0504 20.4216 13.4693 19.8405C12.8881 19.2593 12.5976 18.5537 12.5976 17.7235C12.5976 17.6072 12.6059 17.4867 12.6225 17.3618C12.6391 17.2376 12.664 17.1257 12.6972 17.0261L5.67363 12.9415C5.39136 13.1905 5.07588 13.3855 4.7272 13.5263C4.37851 13.6677 4.01322 13.7385 3.63132 13.7385C2.80112 13.7385 2.09544 13.4479 1.5143 12.8667C0.933151 12.2856 0.642578 11.5799 0.642578 10.7497C0.642578 9.91951 0.933151 9.21383 1.5143 8.63269C2.09544 8.05154 2.80112 7.76097 3.63132 7.76097C4.01322 7.76097 4.37851 7.83137 4.7272 7.97218C5.07588 8.11364 5.39136 8.30891 5.67363 8.55797L12.6972 4.47335C12.664 4.37373 12.6391 4.26181 12.6225 4.13761C12.6059 4.01275 12.5976 3.89221 12.5976 3.77598C12.5976 2.94577 12.8881 2.24009 13.4693 1.65895C14.0504 1.0778 14.7561 0.787231 15.5863 0.787231C16.4165 0.787231 17.1222 1.0778 17.7033 1.65895C18.2845 2.24009 18.5751 2.94577 18.5751 3.77598C18.5751 4.60618 18.2845 5.31186 17.7033 5.893C17.1222 6.47415 16.4165 6.76472 15.5863 6.76472C15.2044 6.76472 14.8391 6.69399 14.4904 6.55252C14.1417 6.41172 13.8263 6.21678 13.544 5.96772L6.52044 10.0523C6.55365 10.152 6.57856 10.2639 6.59516 10.3881C6.61177 10.5129 6.62007 10.6335 6.62007 10.7497C6.62007 10.8659 6.61177 10.9862 6.59516 11.1104C6.57856 11.2352 6.55365 11.3475 6.52044 11.4471L13.544 15.5317C13.8263 15.2826 14.1417 15.0874 14.4904 14.9459C14.8391 14.8051 15.2044 14.7347 15.5863 14.7347C16.4165 14.7347 17.1222 15.0253 17.7033 15.6064C18.2845 16.1876 18.5751 16.8932 18.5751 17.7235C18.5751 18.5537 18.2845 19.2593 17.7033 19.8405C17.1222 20.4216 16.4165 20.7122 15.5863 20.7122Z" fill="#288EBF"/>
</svg>
