<svg width="39" height="40" viewBox="0 0 39 40" fill="none" xmlns="http://www.w3.org/2000/svg">
<g clip-path="url(#clip0_1214_13823)">
<path d="M29.7743 19.9631C29.7743 17.2881 28.1391 14.9974 25.8182 14.0329L24.5825 17.0018C25.7429 17.484 26.5567 18.6294 26.5567 19.9707C26.5567 21.3044 25.7429 22.4498 24.5825 22.9396L25.8182 25.9085C28.1391 24.9289 29.7743 22.6382 29.7743 19.9631ZM28.2898 8.09509L27.054 11.064C30.5429 12.5183 32.9918 15.9544 32.9918 19.9631C32.9918 23.9794 30.5429 27.408 27.054 28.8623L28.2898 31.8312C32.9391 29.8946 36.2018 25.3132 36.2018 19.9631C36.2018 14.6131 32.9391 10.0317 28.2898 8.09509ZM4.0564 11.923V27.9957H10.484L21.7341 39.2534V0.672852L10.484 11.923H4.0564Z" fill="white"/>
</g>
<defs>
<clipPath id="clip0_1214_13823">
<rect width="38.5806" height="38.5806" fill="white" transform="translate(0.311401 0.672852)"/>
</clipPath>
</defs>
</svg>
