<svg width="49" height="49" viewBox="0 0 49 49" fill="none" xmlns="http://www.w3.org/2000/svg">
<path d="M24.5 44.9163L23.9896 38.7913H23.4792C18.6472 38.7913 14.5469 37.107 11.1781 33.7382C7.80937 30.3695 6.125 26.2691 6.125 21.4372C6.125 16.6052 7.80937 12.5049 11.1781 9.13613C14.5469 5.76738 18.6472 4.08301 23.4792 4.08301C25.8951 4.08301 28.1498 4.53354 30.2432 5.43459C32.3366 6.33565 34.1741 7.57766 35.7557 9.16063C37.3373 10.7436 38.5787 12.5811 39.4797 14.6731C40.3808 16.7652 40.832 19.0198 40.8333 21.4372C40.8333 23.9893 40.4161 26.4393 39.5818 28.7872C38.7474 31.1351 37.6075 33.3129 36.162 35.3205C34.7165 37.3281 32.9981 39.1486 31.0068 40.782C29.0155 42.4153 26.8466 43.7934 24.5 44.9163ZM23.4281 32.6153C24.0066 32.6153 24.5 32.4111 24.9083 32.0028C25.3167 31.5945 25.5208 31.1011 25.5208 30.5226C25.5208 29.9441 25.3167 29.4507 24.9083 29.0424C24.5 28.634 24.0066 28.4299 23.4281 28.4299C22.8497 28.4299 22.3562 28.634 21.9479 29.0424C21.5396 29.4507 21.3354 29.9441 21.3354 30.5226C21.3354 31.1011 21.5396 31.5945 21.9479 32.0028C22.3562 32.4111 22.8497 32.6153 23.4281 32.6153ZM21.9479 26.133H25.0104C25.0104 25.1122 25.1125 24.3976 25.3167 23.9893C25.5208 23.5809 26.1674 22.8323 27.2562 21.7434C27.8687 21.1309 28.3792 20.4674 28.7875 19.7528C29.1958 19.0382 29.4 18.2726 29.4 17.4559C29.4 15.7205 28.8127 14.4186 27.638 13.5502C26.4634 12.6818 25.0771 12.2483 23.4792 12.2497C21.9819 12.2497 20.7229 12.6669 19.7021 13.5012C18.6812 14.3356 17.9667 15.3476 17.5583 16.5372L20.4167 17.6601C20.5868 17.0816 20.9101 16.5113 21.3865 15.9492C21.8628 15.387 22.5604 15.1066 23.4792 15.108C24.3979 15.108 25.0866 15.3632 25.5453 15.8736C26.004 16.384 26.2341 16.9455 26.2354 17.558C26.2354 18.1365 26.0653 18.6557 25.725 19.1158C25.3847 19.5759 24.9764 20.0434 24.5 20.5184C23.309 21.5393 22.5856 22.3478 22.3297 22.9439C22.0738 23.5401 21.9466 24.6031 21.9479 26.133Z" fill="white"/>
</svg>
