<svg width="58" height="58" viewBox="0 0 58 58" fill="none" xmlns="http://www.w3.org/2000/svg">
<path d="M6.68471 57.3068C4.93383 57.3068 3.43444 56.6839 2.18654 55.4381C0.94076 54.1902 0.317871 52.6909 0.317871 50.94V6.37209C0.317871 4.62121 0.94076 3.12182 2.18654 1.87392C3.43444 0.628138 4.93383 0.00524902 6.68471 0.00524902H38.5189L57.6194 19.1058V50.94C57.6194 52.6909 56.9966 54.1902 55.7508 55.4381C54.5029 56.6839 53.0035 57.3068 51.2526 57.3068H6.68471ZM13.0516 44.5731H44.8858V38.2063H13.0516V44.5731ZM13.0516 31.8395H44.8858V25.4726H13.0516V31.8395ZM13.0516 19.1058H35.3355V12.7389H13.0516V19.1058Z" fill="#2165A2"/>
</svg>
