<svg width="40" height="58" viewBox="0 0 40 58" fill="none" xmlns="http://www.w3.org/2000/svg">
<path d="M8.28601 17.4756V9.98033C8.28601 6.65574 11.0059 3.93581 14.3305 3.93581C17.6551 3.93581 20.375 6.65574 20.375 9.98033V17.415C22.6114 15.6623 24.0622 12.8816 24.0622 9.799C24.0622 4.41937 19.7101 0.0673218 14.3305 0.0673218C8.95048 0.0673218 4.53809 4.41937 4.53809 9.799C4.53809 12.8816 5.98888 15.6622 8.28601 17.4756Z" fill="#2165A2"/>
<path d="M36.6349 25.8776C34.3985 25.5753 32.5248 27.3284 32.5248 29.5045V27.6911C32.5248 25.8174 31.195 24.1852 29.3815 23.9436C27.1452 23.6412 25.2715 25.3944 25.2715 27.5705V25.757C25.2715 23.8833 23.9417 22.2512 22.1282 22.0095C19.8919 21.7072 18.0182 23.4603 18.0182 25.6365L18.0178 9.98008C18.0178 7.98539 16.3856 6.35315 14.3908 6.35315C12.3961 6.35315 10.7639 7.98528 10.7639 9.98008V38.0266C10.7639 38.45 10.22 38.5706 9.97799 38.2079C8.64819 35.9109 7.01607 32.7073 7.01607 32.647C6.16986 30.8943 3.99381 30.1686 2.24111 31.0149C0.488419 31.8611 -0.237247 34.0371 0.608985 35.7898C0.729994 35.9711 3.87281 42.3179 6.83484 46.5491C10.643 51.9287 13.9069 54.4673 15.5391 55.5555C17.1712 56.7041 18.8636 57.369 19.8911 57.369H29.1392C30.7713 57.369 32.2218 56.583 33.189 55.1929L34.8815 52.7146C38.1453 47.9998 39.8985 42.197 39.8985 36.2735L39.8993 29.6247C39.7783 27.751 38.4485 26.1189 36.635 25.8772L36.6349 25.8776Z" fill="#2165A2"/>
</svg>
