<svg width="89" height="82" viewBox="0 0 89 82" fill="none" xmlns="http://www.w3.org/2000/svg">
<path d="M5.1608 0.143066C2.73592 0.143066 0.784297 2.09551 0.784297 4.51957V13.2736H9.64047L20.959 0.143066H5.1608ZM26.7033 0.143066L15.3848 13.2736H31.5249L42.8435 0.143066H26.7033ZM48.5878 0.143066L37.2692 13.2736H53.4094L64.728 0.143066H48.5878ZM70.4723 0.143066L59.1537 13.2736H77.379V4.51957C77.379 2.09469 75.4265 0.143066 73.0025 0.143066H70.4723ZM0.783907 17.651V65.7969C0.783907 68.2217 2.73635 70.1734 5.16041 70.1734H56.075C55.7117 68.7689 55.4934 67.3149 55.4934 65.7969C55.4934 56.1278 63.3314 48.2889 73.0014 48.2889C74.5195 48.2889 75.9735 48.5072 77.3779 48.8705V17.6519H0.782227L0.783907 17.651ZM33.6106 32.9698L51.1186 43.912L33.6106 54.8542V32.9698ZM73.0027 50.4777C64.5418 50.4777 57.6839 57.3366 57.6839 65.7965C57.6839 74.2574 64.5427 81.1152 73.0027 81.1152C81.4635 81.1152 88.3214 74.2564 88.3214 65.7965C88.3214 57.3356 81.4626 50.4777 73.0027 50.4777ZM73.0027 55.9489C73.6339 55.9489 74.1758 56.2389 74.5758 56.6671C76.3977 58.2906 78.1937 60.3179 80.0125 62.0702C80.8925 62.9503 80.8673 64.2929 80.0125 65.1477C79.1576 66.0026 77.7898 66.0026 76.935 65.1477L75.1909 63.4029V73.4559C75.1909 74.6649 74.2109 75.6441 73.0027 75.6441C71.7936 75.6441 70.8144 74.6641 70.8144 73.4559V63.4029L69.0703 65.1469C68.2155 66.0018 66.8477 66.0018 65.9928 65.1469C65.138 64.2921 65.1212 62.9495 65.9928 62.0694C67.7728 60.278 69.6397 58.3233 71.4296 56.6663C71.8287 56.2389 72.3707 55.9481 73.0027 55.9481V55.9489Z" fill="#DBDBDB"/>
</svg>
