<svg width="80" height="80" viewBox="0 0 80 80" fill="none" xmlns="http://www.w3.org/2000/svg">
<path d="M0 16C0 11.6 3.6 8 8 8H72C74.1217 8 76.1566 8.84285 77.6569 10.3431C79.1571 11.8434 80 13.8783 80 16V64C80 66.1217 79.1571 68.1566 77.6569 69.6568C76.1566 71.1571 74.1217 72 72 72H8C5.87827 72 3.84344 71.1571 2.34315 69.6568C0.842855 68.1566 0 66.1217 0 64V16ZM44 52L32 40L8 64H72L52 44L44 52ZM60 36C62.1217 36 64.1566 35.1571 65.6569 33.6569C67.1571 32.1566 68 30.1217 68 28C68 25.8783 67.1571 23.8434 65.6569 22.3431C64.1566 20.8429 62.1217 20 60 20C57.8783 20 55.8434 20.8429 54.3431 22.3431C52.8429 23.8434 52 25.8783 52 28C52 30.1217 52.8429 32.1566 54.3431 33.6569C55.8434 35.1571 57.8783 36 60 36Z" fill="#DBDBDB"/>
</svg>
