<svg width="39" height="40" viewBox="0 0 39 40" fill="none" xmlns="http://www.w3.org/2000/svg">
<path d="M34.4081 27.438L29.3444 22.3743V25.0669L11.3803 7.10284H26.1294C27.0135 7.10284 27.7707 7.41792 28.4008 8.04806C29.0299 8.67714 29.3444 9.43375 29.3444 10.3179V17.5517L34.4081 12.488C34.676 12.2201 34.9708 12.1531 35.2923 12.2871C35.6138 12.4211 35.7745 12.6756 35.7745 13.0507V26.8754C35.7745 27.2505 35.6138 27.505 35.2923 27.639C34.9708 27.7729 34.676 27.7059 34.4081 27.438ZM32.3183 37.0832L2.57915 7.34397C2.28444 7.04926 2.13708 6.67417 2.13708 6.2187C2.13708 5.76324 2.28444 5.38815 2.57915 5.09344C2.87387 4.79872 3.24896 4.65137 3.70442 4.65137C4.15989 4.65137 4.53497 4.79872 4.82969 5.09344L34.5689 34.8326C34.8636 35.1273 35.0109 35.5024 35.0109 35.9579C35.0109 36.4134 34.8636 36.7884 34.5689 37.0832C34.2742 37.3779 33.8991 37.5252 33.4436 37.5252C32.9881 37.5252 32.6131 37.3779 32.3183 37.0832ZM6.83909 7.10284L29.3444 29.6082C29.3444 30.4923 29.0299 31.2495 28.4008 31.8796C27.7707 32.5087 27.0135 32.8232 26.1294 32.8232H6.83909C5.95495 32.8232 5.19835 32.5087 4.56927 31.8796C3.93912 31.2495 3.62404 30.4923 3.62404 29.6082V10.3179C3.62404 9.43375 3.93912 8.67714 4.56927 8.04806C5.19835 7.41792 5.95495 7.10284 6.83909 7.10284ZM10.0541 26.3931H22.9143V25.509C22.9143 24.3301 22.3249 23.379 21.1461 22.6556C19.9672 21.9322 18.4133 21.5706 16.4842 21.5706C14.5552 21.5706 13.0013 21.9322 11.8224 22.6556C10.6436 23.379 10.0541 24.3301 10.0541 25.509V26.3931Z" fill="white"/>
</svg>
