<svg width="41" height="63" viewBox="0 0 41 63" fill="none" xmlns="http://www.w3.org/2000/svg">
<path d="M7.74062 21.2925L16.9801 14.5812C18.0173 13.8222 19.2789 13.4325 20.5635 13.4742C22.1303 13.5133 23.646 14.0396 24.9 14.9799C26.1539 15.9202 27.0837 17.2278 27.5601 18.721C28.0963 20.4017 28.5864 21.5375 29.0304 22.1285C30.3718 23.9182 32.1119 25.3706 34.1125 26.3704C36.1132 27.3702 38.3193 27.89 40.5559 27.8884V33.6541C37.5788 33.6573 34.638 33.0005 31.9452 31.7308C29.2524 30.4612 26.8745 28.6103 24.9829 26.3115L22.9735 37.7131L28.915 42.7004L35.3236 60.3088L29.9039 62.2806L24.0229 46.1252L14.2501 37.9236C13.4481 37.2759 12.8343 36.4251 12.4728 35.4598C12.1113 34.4944 12.0152 33.4498 12.1946 32.4346L13.662 24.1177L11.7103 25.536L5.57849 33.977L0.914062 30.5867L7.69161 21.2579L7.74062 21.2925ZM24.7003 12.0328C23.1712 12.0328 21.7047 11.4254 20.6234 10.3441C19.5421 9.26282 18.9347 7.7963 18.9347 6.26715C18.9347 4.738 19.5421 3.27148 20.6234 2.19021C21.7047 1.10893 23.1712 0.50148 24.7003 0.50148C26.2295 0.50148 27.696 1.10893 28.7773 2.19021C29.8586 3.27148 30.466 4.738 30.466 6.26715C30.466 7.7963 29.8586 9.26282 28.7773 10.3441C27.696 11.4254 26.2295 12.0328 24.7003 12.0328ZM16.1325 50.0315L6.86712 61.0727L2.45061 57.3683L11.0299 47.1458L13.1805 40.8612L18.3437 45.1854L16.1325 50.0315Z" fill="#2165A2"/>
</svg>
