<svg width="16" height="22" viewBox="0 0 16 22" fill="none" xmlns="http://www.w3.org/2000/svg">
<path d="M13.0297 7.78857C13.0297 8.76476 12.7402 9.71903 12.1979 10.5307C11.6555 11.3424 10.8847 11.975 9.98281 12.3486C9.08093 12.7221 8.08853 12.8199 7.13109 12.6294C6.17366 12.439 5.2942 11.9689 4.60393 11.2786C3.91366 10.5884 3.44358 9.70891 3.25313 8.75148C3.06269 7.79404 3.16043 6.80164 3.534 5.89975C3.90757 4.99787 4.5402 4.22702 5.35187 3.68468C6.16354 3.14233 7.11781 2.85286 8.094 2.85286C9.40303 2.85286 10.6584 3.37287 11.5841 4.29849C12.5097 5.22412 13.0297 6.47954 13.0297 7.78857ZM15.8501 7.78857C15.8503 8.93106 15.5974 10.0594 15.1098 11.0926C14.6222 12.1258 13.9118 13.0382 13.0297 13.7643V20.4804C13.0297 20.6674 12.9554 20.8467 12.8232 20.979C12.691 21.1112 12.5116 21.1855 12.3246 21.1855C12.2152 21.1832 12.1074 21.1592 12.0073 21.115L8.094 19.1495L4.18069 21.115C4.07264 21.1683 3.95271 21.1931 3.83236 21.1869C3.71201 21.1808 3.59524 21.1439 3.49322 21.0797C3.39036 21.0173 3.30545 20.9292 3.24675 20.8242C3.18805 20.7192 3.15758 20.6007 3.15829 20.4804V13.7643C2.14994 12.9324 1.36819 11.8592 0.88566 10.6444C0.403131 9.42949 0.235479 8.11237 0.398279 6.81536C0.561079 5.51835 1.04905 4.28352 1.81686 3.22559C2.58467 2.16766 3.60741 1.32094 4.79007 0.764109C5.97273 0.207273 7.27694 -0.041621 8.58154 0.0405474C9.88615 0.122716 11.1488 0.533281 12.2523 1.2341C13.3557 1.93493 14.2641 2.90327 14.8931 4.04917C15.5222 5.19508 15.8513 6.48138 15.8501 7.78857ZM14.4399 7.78857C14.4399 6.53346 14.0677 5.30655 13.3704 4.26297C12.6731 3.21939 11.682 2.40602 10.5225 1.92571C9.36291 1.4454 8.08696 1.31973 6.85598 1.56459C5.62499 1.80945 4.49426 2.41384 3.60677 3.30133C2.71927 4.18882 2.11488 5.31956 1.87003 6.55054C1.62517 7.78153 1.75084 9.05748 2.23115 10.217C2.71145 11.3766 3.52482 12.3677 4.5684 13.065C5.61198 13.7623 6.8389 14.1345 8.094 14.1345C9.77632 14.1321 11.3891 13.4628 12.5787 12.2732C13.7682 11.0836 14.4376 9.47089 14.4399 7.78857Z" fill="#2165A2"/>
</svg>
