<svg width="150" height="107" viewBox="0 0 150 107" fill="none" xmlns="http://www.w3.org/2000/svg">
<g opacity="0.8">
<rect x="46.2676" y="20.3116" width="61.1004" height="57.3979" fill="white"/>
<path fill-rule="evenodd" clip-rule="evenodd" d="M59.6043 73.064V30.6742L99.8875 51.9445L59.6043 73.064ZM148.066 23.3351C148.066 23.3351 146.612 12.9338 142.139 8.35538C136.473 2.35141 130.113 2.32124 127.198 1.96674C106.337 0.443116 75.0302 0.443115 75.0302 0.443115H74.9705C74.9705 0.443115 43.6715 0.443116 22.803 1.96674C19.8878 2.32124 13.5356 2.34387 7.86178 8.35538C3.38836 12.9338 1.9345 23.3351 1.9345 23.3351C1.9345 23.3351 0.443359 35.5392 0.443359 47.7508V59.193C0.443359 71.3971 1.9345 83.6087 1.9345 83.6087C1.9345 83.6087 3.38836 94.0025 7.86178 98.5809C13.5281 104.592 20.9838 104.396 24.3016 105.03C36.2307 106.184 75.0004 106.538 75.0004 106.538C75.0004 106.538 106.337 106.493 127.198 104.97C130.113 104.615 136.473 104.592 142.139 98.5809C146.612 94.0025 148.066 83.6087 148.066 83.6087C148.066 83.6087 149.557 71.3971 149.557 59.193V47.7508C149.557 35.5392 148.066 23.3351 148.066 23.3351Z" fill="#F90303"/>
</g>
</svg>
